<svg width="54" height="50" viewBox="0 0 54 50" fill="none" xmlns="http://www.w3.org/2000/svg">
<path d="M1.66675 3.66667C1.66675 2.95942 1.9477 2.28115 2.4478 1.78105C2.94789 1.28095 3.62617 1 4.33341 1H20.3334L27.0001 9H49.6667C50.374 9 51.0523 9.28095 51.5524 9.78105C52.0525 10.2811 52.3334 10.9594 52.3334 11.6667V46.3333C52.3334 47.0406 52.0525 47.7189 51.5524 48.219C51.0523 48.7191 50.374 49 49.6667 49H4.33341C3.62617 49 2.94789 48.7191 2.4478 48.219C1.9477 47.7189 1.66675 47.0406 1.66675 46.3333V3.66667Z" stroke="#3982FF" stroke-width="2" stroke-linejoin="round"/>
<path d="M19 31.6667L25.6667 37L37.6667 22.3334" stroke="#3982FF" stroke-width="2" stroke-linecap="round" stroke-linejoin="round"/>
</svg>
