<svg width="18" height="18" viewBox="0 0 18 18" fill="none" xmlns="http://www.w3.org/2000/svg">
<path fill-rule="evenodd" clip-rule="evenodd" d="M14.3438 8.99995C14.3441 10.1597 13.9463 11.2845 13.2168 12.1861C12.4873 13.0877 11.4703 13.7115 10.3359 13.9531C9.20161 14.1947 8.0187 14.0395 6.98507 13.5135C5.95145 12.9875 5.12978 12.1225 4.6575 11.0632L3.09263 11.6988C3.71298 13.1202 4.80379 14.2847 6.18167 14.9965C7.55955 15.7082 9.14049 15.9239 10.6587 15.6072C12.1769 15.2906 13.5397 14.4608 14.5182 13.2575C15.4966 12.0543 16.0309 10.5508 16.0312 8.99995C16.0313 7.59115 15.5906 6.21763 14.7708 5.0719C13.9511 3.92616 12.7934 3.06563 11.46 2.61091C10.1266 2.15619 8.6843 2.13007 7.33531 2.53621C5.98632 2.94235 4.79821 3.7604 3.9375 4.8757V2.81245H2.25V7.31245L3.09375 8.1562H7.03125V6.4687H4.896C5.45299 5.50308 6.31313 4.7483 7.34293 4.32149C8.37274 3.89468 9.51462 3.8197 10.5914 4.10819C11.6682 4.39668 12.6196 5.0325 13.2981 5.917C13.9766 6.80149 14.3441 7.8852 14.3438 8.99995Z" fill="#5B5F7B"/>
</svg>
